<?xml version="1.0" standalone="no"?>
<!DOCTYPE svg PUBLIC "-//W3C//DTD SVG 20010904//EN"
 "http://www.w3.org/TR/2001/REC-SVG-20010904/DTD/svg10.dtd">
<svg version="1.0" xmlns="http://www.w3.org/2000/svg"
 width="338.000000pt" height="200.000000pt" viewBox="0 0 338.000000 200.000000"
 preserveAspectRatio="xMidYMid meet">

<g transform="translate(0.000000,200.000000) scale(0.100000,-0.100000)"
fill="#000000" stroke="none">
<path d="M0 1000 l0 -1000 1690 0 1690 0 0 1000 0 1000 -1690 0 -1690 0 0
-1000z m2784 181 c18 -7 18 -8 3 -14 -9 -3 -17 -2 -17 3 0 5 -8 11 -17 13 -12
3 -13 5 -3 5 8 0 24 -3 34 -7z m-114 -11 c0 -5 -2 -10 -4 -10 -3 0 -8 5 -11
10 -3 6 -1 10 4 10 6 0 11 -4 11 -10z m71 -23 c-10 -9 -11 -8 -5 6 3 10 9 15
12 12 3 -3 0 -11 -7 -18z m76 3 c-3 -11 -1 -20 5 -20 18 0 3 -33 -16 -36 -11
-1 -23 -10 -28 -18 -5 -9 -13 -16 -19 -16 -5 0 2 12 16 28 17 17 24 35 22 49
-2 12 0 20 4 17 5 -3 9 0 9 5 0 6 3 11 6 11 4 0 4 -9 1 -20z m-167 -15 c0 -14
-4 -25 -9 -25 -4 0 -6 11 -3 25 2 14 6 25 8 25 2 0 4 -11 4 -25z m-83 -17 c2
-17 0 -19 -7 -8 -5 8 -6 18 -4 22 8 12 10 10 11 -14z m100 -40 c-2 -13 -4 -3
-4 22 0 25 2 35 4 23 2 -13 2 -33 0 -45z m-210 20 c-3 -8 -6 -5 -6 6 -1 11 2
17 5 13 3 -3 4 -12 1 -19z m294 -5 c13 -16 12 -17 -3 -4 -10 7 -18 15 -18 17
0 8 8 3 21 -13z m-29 -48 c-6 -34 -12 -32 -12 6 0 16 4 28 9 25 4 -3 6 -17 3
-31z m98 21 c0 -2 -6 -9 -14 -15 -11 -9 -16 -9 -22 0 -4 8 -3 9 4 5 7 -4 12
-2 12 3 0 6 5 11 10 11 6 0 10 -2 10 -4z m30 -44 c0 -15 -2 -15 -10 -2 -13 20
-13 33 0 25 6 -3 10 -14 10 -23z m-280 -2 c0 -5 -2 -10 -4 -10 -3 0 -8 5 -11
10 -3 6 -1 10 4 10 6 0 11 -4 11 -10z m243 -13 c-3 -14 2 -29 13 -38 16 -13
17 -12 11 10 -4 18 -3 21 5 13 29 -29 -30 -84 -85 -81 l-22 2 22 4 c13 2 20
10 17 17 -3 7 2 19 11 26 8 7 15 25 15 41 0 16 4 29 9 29 4 0 6 -10 4 -23z
m-356 -9 c-3 -8 -6 -5 -6 6 -1 11 2 17 5 13 3 -3 4 -12 1 -19z m283 -20 c0
-36 -9 -33 -16 6 -2 14 0 26 6 26 5 0 10 -14 10 -32z m-165 12 c3 -5 1 -10 -4
-10 -6 0 -11 5 -11 10 0 6 2 10 4 10 3 0 8 -4 11 -10z m65 -5 c0 -8 -4 -15
-10 -15 -5 0 -7 7 -4 15 4 8 8 15 10 15 2 0 4 -7 4 -15z m-9 -50 c0 -13 -41
-19 -52 -8 -6 6 3 8 23 6 28 -3 30 -2 13 7 -17 8 -17 9 -2 7 10 -1 18 -6 18
-12z m-150 -13 c-7 -2 -18 1 -23 6 -8 8 -4 9 13 5 13 -4 18 -8 10 -11z m245
-9 c-10 -10 -19 5 -10 18 6 11 8 11 12 0 2 -7 1 -15 -2 -18z"/>
<path d="M2797 955 c-13 -9 -15 -15 -7 -20 14 -8 34 9 29 23 -3 7 -11 6 -22
-3z"/>
</g>
</svg>
