<?xml version="1.0" standalone="no"?>
<!DOCTYPE svg PUBLIC "-//W3C//DTD SVG 20010904//EN"
 "http://www.w3.org/TR/2001/REC-SVG-20010904/DTD/svg10.dtd">
<svg version="1.0" xmlns="http://www.w3.org/2000/svg"
 width="256.000000pt" height="60.000000pt" viewBox="0 0 256.000000 60.000000"
 preserveAspectRatio="xMidYMid meet">

<g transform="translate(0.000000,60.000000) scale(0.100000,-0.100000)"
fill="#000000" stroke="none">
<path d="M0 300 l0 -300 1280 0 1280 0 0 300 0 300 -1280 0 -1280 0 0 -300z
m2240 195 c0 -8 -6 -14 -12 -12 -9 1 -13 -15 -13 -55 0 -31 -3 -54 -7 -52 -5
3 -8 34 -8 70 0 57 2 64 20 64 11 0 20 -7 20 -15z m137 -3 c16 -10 -2 -82 -19
-82 -9 0 -9 3 0 12 14 14 16 72 3 63 -5 -3 -12 -1 -16 5 -7 12 15 13 32 2z
m-57 -12 c0 -5 -5 -10 -11 -10 -5 0 -7 5 -4 10 3 6 8 10 11 10 2 0 4 -4 4 -10z
m-83 -72 c-2 -13 -4 -5 -4 17 -1 22 1 32 4 23 2 -10 2 -28 0 -40z m159 16 c-4
-9 -9 -15 -11 -12 -3 3 -3 13 1 22 4 9 9 15 11 12 3 -3 3 -13 -1 -22z m-65
-12 c-7 -2 -18 1 -23 6 -8 8 -4 9 13 5 13 -4 18 -8 10 -11z m-44 -59 c-3 -10
-5 -4 -5 12 0 17 2 24 5 18 2 -7 2 -21 0 -30z m133 -15 c0 -16 -19 -8 -23 10
-3 14 -6 13 -15 -8 -6 -14 -11 -19 -11 -12 -1 7 5 21 12 32 11 19 13 19 25 3
6 -9 12 -20 12 -25z m-285 2 c3 -5 1 -10 -4 -10 -6 0 -11 5 -11 10 0 6 2 10 4
10 3 0 8 -4 11 -10z m67 -42 c-7 -7 -12 -8 -12 -2 0 14 12 26 19 19 2 -3 -1
-11 -7 -17z m108 7 c0 -8 -4 -15 -10 -15 -5 0 -7 7 -4 15 4 8 8 15 10 15 2 0
4 -7 4 -15z m99 -29 c-12 -27 -47 -42 -71 -33 -7 3 0 6 15 6 17 1 30 8 34 19
8 19 26 42 31 37 1 -1 -3 -14 -9 -29z m-29 20 c0 -9 -32 -36 -42 -36 -6 0 0 9
13 20 25 21 29 23 29 16z m-335 -54 c-3 -3 -11 0 -18 7 -9 10 -8 11 6 5 10 -3
15 -9 12 -12z m155 8 c-8 -5 -24 -9 -35 -9 l-20 0 20 9 c11 5 27 9 35 9 13 1
13 0 0 -9z m-253 -6 c-3 -3 -12 -4 -19 -1 -8 3 -5 6 6 6 11 1 17 -2 13 -5z"/>
</g>
</svg>
